<svg width="48" height="48" viewBox="0 0 48 48" fill="none" xmlns="http://www.w3.org/2000/svg">
<path d="M45.8995 24C45.8995 19.6658 44.6147 15.429 42.2075 11.8252C39.8003 8.22148 36.3789 5.4127 32.3759 3.75408C28.3729 2.09546 23.9681 1.66149 19.7185 2.50705C15.469 3.35261 11.5655 5.43971 8.50176 8.50445C5.43799 11.5692 3.35156 15.4739 2.50627 19.7248C1.66098 23.9757 2.09479 28.3819 3.75289 32.3861C5.41098 36.3904 8.21889 39.8129 11.8215 42.2208C15.4241 44.6288 19.6596 45.914 23.9924 45.914C29.8025 45.914 35.3747 43.6052 39.4831 39.4956C43.5915 35.3859 45.8995 29.812 45.8995 24ZM47.9848 24C47.9848 28.7467 46.5777 33.3869 43.9414 37.3337C41.3051 41.2805 37.558 44.3566 33.1739 46.1731C28.7899 47.9896 23.9658 48.4649 19.3117 47.5388C14.6577 46.6128 10.3826 44.327 7.02722 40.9706C3.67182 37.6141 1.38677 33.3377 0.461017 28.6822C-0.464736 24.0266 0.0104004 19.201 1.82633 14.8156C3.64226 10.4302 6.71741 6.68189 10.6629 4.04474C14.6085 1.40759 19.2472 1.07938e-05 23.9924 1.07938e-05C27.1447 -0.00298015 30.2667 0.615646 33.1798 1.82051C36.0929 3.02538 38.7399 4.79285 40.9697 7.02185C43.1994 9.25086 44.9679 11.8977 46.1743 14.8109C47.3806 17.7242 48.001 20.8467 48 24H47.9848ZM22.9081 20.2073C22.8468 20.4257 22.7158 20.618 22.5351 20.755C22.3544 20.892 22.1338 20.966 21.9071 20.9659H16.4398L20.4891 24.3413C20.6553 24.48 20.7745 24.6668 20.8302 24.876C20.8858 25.0852 20.8753 25.3065 20.8 25.5095L18.8663 30.6523L23.4161 27.4286C23.5919 27.2992 23.8045 27.2294 24.0228 27.2294C24.241 27.2294 24.4536 27.2992 24.6294 27.4286L29.1791 30.6523L27.2531 25.5095C27.1746 25.3076 27.1617 25.0861 27.2162 24.8764C27.2706 24.6667 27.3896 24.4795 27.5564 24.3413L31.6057 20.9659H26.1384C25.9117 20.966 25.6911 20.892 25.5104 20.755C25.3296 20.618 25.1987 20.4257 25.1375 20.2073L24.0531 16.4147L22.9687 20.2073H22.9081ZM22.9763 12.3413C23.0371 12.1225 23.1679 11.9296 23.3486 11.7922C23.5294 11.6548 23.7502 11.5803 23.9773 11.5803C24.2043 11.5803 24.4251 11.6548 24.6059 11.7922C24.7866 11.9296 24.9174 12.1225 24.9782 12.3413L26.8512 18.8875H34.4341C34.6489 18.8881 34.8584 18.9547 35.034 19.0785C35.2096 19.2022 35.3429 19.377 35.4158 19.5791C35.4886 19.7813 35.4976 20.0009 35.4413 20.2083C35.3851 20.4157 35.2664 20.6007 35.1014 20.7383L29.4066 25.4791L32.2806 33.1327C32.3564 33.342 32.3636 33.57 32.3011 33.7836C32.2385 33.9972 32.1096 34.1854 31.9329 34.3207C31.7562 34.456 31.541 34.5314 31.3185 34.5361C31.096 34.5407 30.8779 34.4742 30.6957 34.3464L23.9924 29.5828L17.2967 34.3616C17.1145 34.4894 16.8964 34.5558 16.6739 34.5512C16.4514 34.5466 16.2362 34.4712 16.0595 34.3358C15.8829 34.2005 15.7539 34.0124 15.6914 33.7988C15.6288 33.5852 15.636 33.3572 15.7119 33.1479L18.5858 25.4943L12.891 20.7535C12.726 20.6159 12.6073 20.4308 12.5511 20.2235C12.4949 20.0161 12.5038 19.7964 12.5767 19.5943C12.6495 19.3922 12.7828 19.2174 12.9584 19.0936C13.1341 18.9699 13.3435 18.9032 13.5583 18.9027H21.1412L22.9763 12.3413Z" fill="#00BA97"/>
</svg>
