<svg width="39" height="48" viewBox="0 0 39 48" fill="none" xmlns="http://www.w3.org/2000/svg">
<path d="M30.0855 13.8432C30.1797 13.7321 30.2958 13.6424 30.4263 13.5799C30.5569 13.5174 30.6988 13.4835 30.8431 13.4803C30.9873 13.4772 31.1306 13.5049 31.2636 13.5617C31.3966 13.6184 31.5164 13.703 31.6152 13.8099C31.714 13.9168 31.7896 14.0436 31.8371 14.1821C31.8847 14.3206 31.903 14.4677 31.891 14.6139C31.879 14.7601 31.8369 14.9021 31.7675 15.0307C31.6981 15.1592 31.6028 15.2716 31.4879 15.3603L16.0909 29.9772C15.9001 30.1658 15.6445 30.2713 15.3784 30.2713C15.1124 30.2713 14.8568 30.1658 14.666 29.9772L9.54113 24.7585C9.34328 24.5634 9.22977 24.2963 9.22557 24.0161C9.22138 23.7359 9.32683 23.4654 9.51875 23.2642C9.71066 23.063 9.9733 22.9476 10.2489 22.9434C10.5245 22.9391 10.7905 23.0463 10.9883 23.2415L15.4195 27.7472L30.093 13.8432H30.0855ZM2.05145 2.08597V28.1719C2.14584 32.8129 4.02524 37.2314 7.2865 40.4797C10.5478 43.728 14.9311 45.5472 19.4963 45.5472C24.0614 45.5472 28.4448 43.728 31.706 40.4797C34.9673 37.2314 36.8467 32.8129 36.9411 28.1719V2.08597H2.05145ZM2.05145 0H36.9485C37.4926 0 38.0144 0.219771 38.3991 0.610965C38.7839 1.00216 39 1.53273 39 2.08597V28.1719C39 33.4307 36.9455 38.474 33.2886 42.1925C29.6316 45.911 24.6717 48 19.5 48C14.3283 48 9.36838 45.911 5.71142 42.1925C2.05446 38.474 7.70647e-08 33.4307 0 28.1719L0 2.08597C0 1.53273 0.216135 1.00216 0.600857 0.610965C0.985579 0.219771 1.50737 0 2.05145 0Z" fill="#00BA97"/>
</svg>
