<svg width="47" height="46" viewBox="0 0 47 46" fill="none" xmlns="http://www.w3.org/2000/svg">
<path d="M30.4798 43.8632H43.6849C44.2496 43.8632 44.6981 43.3846 44.6981 42.8034V21.3846C44.6981 20.7863 44.2496 20.3077 43.6849 20.3077H40.6452V23.7949V23.4017V27.1795C40.6452 29.5043 38.8181 31.3675 36.5757 31.3675H30.4798V41.8291H16.2614V31.3675H10.1655C7.92308 31.3675 6.09595 29.5043 6.09595 27.1795V20.3077H3.03967C2.49153 20.3077 2.02645 20.7863 2.02645 21.3846V42.8034C2.02645 43.3846 2.49153 43.8632 3.03967 43.8632H16.2614V41.8291H18.2879V43.8632H28.4533V41.8291H30.4798V43.8632ZM18.2879 39.7265H28.4533V37.641H18.2879V39.7265ZM18.2879 35.5556H28.4533V31.3675H18.2879V35.5556ZM10.1655 29.2821H36.5757C37.7052 29.2821 38.6022 28.3419 38.6022 27.1795V9.62393C38.6022 5.48718 35.413 2.13675 31.493 2.13675C27.573 2.13675 24.3838 5.48718 24.3838 9.62393C24.3838 10.2051 23.9353 10.6838 23.3706 10.6838C22.8058 10.6838 22.3574 10.2051 22.3574 9.62393C22.3574 5.48718 19.1682 2.13675 15.2482 2.13675C11.3116 2.13675 8.1224 5.48718 8.1224 9.62393V27.1795C8.1224 28.3419 9.03596 29.2821 10.1655 29.2821ZM43.6849 18.1709C45.3791 18.1709 46.7412 19.6068 46.7412 21.3846V42.8034C46.7412 44.5641 45.3791 46 43.6849 46H3.03967C1.36204 46 0 44.5641 0 42.8034V21.3846C0 19.6068 1.36204 18.1709 3.03967 18.1709H6.09595V9.62393C6.09595 4.30769 10.1987 0 15.2482 0C18.7696 0 21.8424 2.11966 23.3706 5.21368C24.8821 2.11966 27.955 0 31.493 0C36.5425 0 40.6452 4.30769 40.6452 9.62393V18.1709H43.6849ZM28.337 16.1538C28.2872 16.2564 27.0082 18.8205 23.3706 18.8205C19.7329 18.8205 18.454 16.2564 18.4041 16.1538C18.1384 15.641 18.3543 15.0085 18.8526 14.7521C19.3509 14.4957 19.9489 14.7009 20.2146 15.1966C20.2479 15.2991 21.0452 16.735 23.3706 16.735C25.696 16.735 26.4933 15.265 26.5265 15.1966C26.7923 14.7009 27.4069 14.4957 27.8886 14.7692C28.3869 15.0256 28.5862 15.641 28.337 16.1538Z" fill="#00BA97"/>
<path d="M5.08243 35.812C5.50441 35.812 5.8465 35.46 5.8465 35.0257C5.8465 34.5914 5.50441 34.2394 5.08243 34.2394C4.66045 34.2394 4.31836 34.5914 4.31836 35.0257C4.31836 35.46 4.66045 35.812 5.08243 35.812Z" fill="#00BA97" stroke="#00BA97" stroke-width="1.78181" stroke-miterlimit="22.9256"/>
<path d="M12.3578 35.4358C12.7798 35.4358 13.1219 35.0838 13.1219 34.6495C13.1219 34.2152 12.7798 33.8632 12.3578 33.8632C11.9358 33.8632 11.5938 34.2152 11.5938 34.6495C11.5938 35.0838 11.9358 35.4358 12.3578 35.4358Z" fill="#00BA97" stroke="#00BA97" stroke-width="1.78181" stroke-miterlimit="22.9256"/>
<path d="M9.64884 41.0427C10.0708 41.0427 10.4129 40.6907 10.4129 40.2564C10.4129 39.8221 10.0708 39.4701 9.64884 39.4701C9.22685 39.4701 8.88477 39.8221 8.88477 40.2564C8.88477 40.6907 9.22685 41.0427 9.64884 41.0427Z" fill="#00BA97" stroke="#00BA97" stroke-width="1.78181" stroke-miterlimit="22.9256"/>
<path d="M41.7914 35.812C42.2134 35.812 42.5555 35.46 42.5555 35.0257C42.5555 34.5914 42.2134 34.2394 41.7914 34.2394C41.3694 34.2394 41.0273 34.5914 41.0273 35.0257C41.0273 35.46 41.3694 35.812 41.7914 35.812Z" fill="#00BA97" stroke="#00BA97" stroke-width="1.78181" stroke-miterlimit="22.9256"/>
<path d="M34.5336 35.4358C34.9556 35.4358 35.2977 35.0838 35.2977 34.6495C35.2977 34.2152 34.9556 33.8632 34.5336 33.8632C34.1116 33.8632 33.7695 34.2152 33.7695 34.6495C33.7695 35.0838 34.1116 35.4358 34.5336 35.4358Z" fill="#00BA97" stroke="#00BA97" stroke-width="1.78181" stroke-miterlimit="22.9256"/>
<path d="M37.2231 41.0427C37.645 41.0427 37.9871 40.6907 37.9871 40.2564C37.9871 39.8221 37.645 39.4701 37.2231 39.4701C36.8011 39.4701 36.459 39.8221 36.459 40.2564C36.459 40.6907 36.8011 41.0427 37.2231 41.0427Z" fill="#00BA97" stroke="#00BA97" stroke-width="1.78181" stroke-miterlimit="22.9256"/>
</svg>
