<svg width="48" height="46" viewBox="0 0 48 46" fill="none" xmlns="http://www.w3.org/2000/svg">
<path fill-rule="evenodd" clip-rule="evenodd" d="M30.7895 43.8627H44.1316C44.6984 43.8627 45.1579 43.3842 45.1579 42.7939V21.3737C45.1579 20.7835 44.6984 20.305 44.1316 20.305H41.0526V23.7899V23.395V27.1818C41.0526 29.4913 39.2146 31.3636 36.9474 31.3636H30.7895V41.8182H16.4211V31.3636H10.2632C7.99588 31.3636 6.1579 29.4913 6.1579 27.1818V20.305H3.07895C2.51213 20.305 2.05263 20.7835 2.05263 21.3737V42.7939C2.05263 43.3842 2.51213 43.8627 3.07895 43.8627H16.4211V41.8182H18.4737V43.8627H28.7368V41.8182H30.7895V43.8627ZM18.4737 39.7273H28.7368V37.6364H18.4737V39.7273ZM18.4737 35.5455H28.7368V31.3636H18.4737V35.5455ZM10.2632 29.2727H36.9474C38.081 29.2727 39 28.3366 39 27.1818V9.61818C39 5.49318 35.7773 2.13738 31.8158 2.13738C27.8543 2.13738 24.6316 5.49318 24.6316 9.61818C24.6316 10.2078 24.1716 10.6868 23.6053 10.6868C23.0389 10.6868 22.5789 10.2078 22.5789 9.61818C22.5789 5.49318 19.3562 2.13738 15.3947 2.13738C11.4333 2.13738 8.21053 5.49318 8.21053 9.61818V27.1818C8.21053 28.3366 9.12952 29.2727 10.2632 29.2727ZM44.1316 18.1677C45.8321 18.1677 47.2105 19.6031 47.2105 21.3737V42.7939C47.2105 44.5646 45.8321 46 44.1316 46H3.07895C1.3785 46 0 44.5646 0 42.7939V21.3737C0 19.6031 1.3785 18.1677 3.07895 18.1677H6.1579V9.61818C6.1579 4.31549 10.3023 0 15.3947 0C18.9653 0 22.0678 2.12014 23.6053 5.21398C25.1427 2.12014 28.2452 0 31.8158 0C36.9083 0 41.0526 4.31549 41.0526 9.61818V18.1677H44.1316ZM28.6264 16.1493C28.5728 16.2591 27.2742 18.8186 23.6038 18.8186C19.9335 18.8186 18.6359 16.2591 18.5823 16.1493C18.3288 15.6333 18.5342 15.0048 19.0412 14.7466C19.5447 14.4903 20.1554 14.6966 20.4119 15.2034C20.4581 15.2891 21.2666 16.7277 23.6038 16.7277C25.9626 16.7277 26.7643 15.2643 26.7968 15.2013C27.0628 14.6966 27.6806 14.497 28.177 14.7624C28.6756 15.0249 28.8769 15.6394 28.6264 16.1493Z" fill="#06BA98"/>
</svg>
