<svg width="46" height="46" viewBox="0 0 46 46" fill="none" xmlns="http://www.w3.org/2000/svg">
<g clip-path="url(#clip0)">
<path fill-rule="evenodd" clip-rule="evenodd" d="M31 6C35.9619 6 40 10.0381 40 15V25C40 27.415 38.2788 29.4341 36 29.8989V35C36 37.7569 33.7569 40 31 40C28.2431 40 26 37.7569 26 35V33C26 31.3463 24.6537 30 23 30C21.3463 30 20 31.3463 20 33V35C20 37.7569 17.7569 40 15 40C12.2431 40 10 37.7569 10 35V29.8989C7.72125 29.435 6 27.415 6 25V15C6 10.0381 10.0381 6 15 6C18.479 6 21.502 7.98387 23 10.8789C24.498 7.98387 27.521 6 31 6ZM38 25V15C38 11.1401 34.8599 8 31 8C27.1401 8 24 11.1401 24 15C24 15.5518 23.5518 16 23 16C22.4482 16 22 15.5518 22 15C22 11.1401 18.8599 8 15 8C11.1401 8 8 11.1401 8 15V25C8 26.6537 9.34625 28 11 28C11.5518 28 12 28.4468 12 29V35C12 36.6538 13.3463 38 15 38C16.6537 38 18 36.6538 18 35V33C18 30.2431 20.2431 28 23 28C25.7569 28 28 30.2431 28 33V35C28 36.6538 29.3463 38 31 38C32.6538 38 34 36.6538 34 35V29C34 28.4468 34.4482 28 35 28C36.6538 28 38 26.6537 38 25ZM27.457 19.1201C27.9419 19.3721 28.1391 19.958 27.895 20.4467C27.8418 20.5507 26.5771 23 23 23C19.4229 23 18.1583 20.5507 18.106 20.4482C17.8589 19.9541 18.0591 19.353 18.5532 19.106C19.044 18.8599 19.6391 19.0571 19.8891 19.542C19.9341 19.625 20.7221 21 23 21C25.2979 21 26.0801 19.5991 26.1119 19.54C26.3721 19.0591 26.9741 18.8701 27.457 19.1201ZM35 2C34.4477 2 34 1.55228 34 1C34 0.447715 34.4477 0 35 0H41C43.7614 0 46 2.23858 46 5V11C46 11.5523 45.5523 12 45 12C44.4477 12 44 11.5523 44 11V5C44 3.34315 42.6569 2 41 2H35ZM35 44H41C42.6569 44 44 42.6569 44 41V35C44 34.4477 44.4477 34 45 34C45.5523 34 46 34.4477 46 35V41C46 43.7614 43.7614 46 41 46H35C34.4477 46 34 45.5523 34 45C34 44.4477 34.4477 44 35 44ZM11 2H5C3.34315 2 2 3.34315 2 5V11C2 11.5523 1.55228 12 1 12C0.447715 12 0 11.5523 0 11V5C0 2.23858 2.23858 0 5 0H11C11.5523 0 12 0.447715 12 1C12 1.55228 11.5523 2 11 2ZM11 44C11.5523 44 12 44.4477 12 45C12 45.5523 11.5523 46 11 46H5C2.23858 46 0 43.7614 0 41V35C0 34.4477 0.447715 34 1 34C1.55228 34 2 34.4477 2 35V41C2 42.6569 3.34315 44 5 44H11Z" fill="#06BA98"/>
</g>
<defs>
<clipPath id="clip0">
<rect width="46" height="46" fill="white"/>
</clipPath>
</defs>
</svg>
