<svg width="45" height="46" viewBox="0 0 45 46" fill="none" xmlns="http://www.w3.org/2000/svg">
<g clip-path="url(#clip0)">
<path fill-rule="evenodd" clip-rule="evenodd" d="M22.3947 46C34.7647 46 44.7895 35.7043 44.7895 23C44.7895 10.297 34.764 0 22.3947 0C10.028 0 0 10.2984 0 23C0 35.7029 10.0274 46 22.3947 46ZM42.8421 23C42.8421 11.4016 33.6885 2 22.3947 2C11.1035 2 1.94737 11.403 1.94737 23C1.94737 34.5983 11.1028 44 22.3947 44C33.6892 44 42.8421 34.5997 42.8421 23ZM21.4211 31.8741V23.9171C18.6576 23.4412 16.5526 20.9736 16.5526 18C16.5526 15.0277 18.658 12.5592 21.4211 12.083V10C21.4211 9.44771 21.857 9 22.3947 9C22.9325 9 23.3684 9.44771 23.3684 10V12.083C26.1314 12.5592 28.2368 15.0277 28.2368 18C28.2368 18.5523 27.8009 19 27.2632 19C26.7254 19 26.2895 18.5523 26.2895 18C26.2895 16.1367 25.0481 14.5703 23.3684 14.1261V22.083C26.1314 22.5592 28.2368 25.0277 28.2368 28C28.2368 30.9736 26.1318 33.4412 23.3684 33.9171V36C23.3684 36.5523 22.9325 37 22.3947 37C21.857 37 21.4211 36.5523 21.4211 36V33.9171C18.6576 33.4412 16.5526 30.9736 16.5526 28C16.5526 27.4477 16.9886 27 17.5263 27C18.0641 27 18.5 27.4477 18.5 28C18.5 29.8644 19.741 31.4302 21.4211 31.8741ZM23.3684 31.8741C25.0485 31.4302 26.2895 29.8644 26.2895 28C26.2895 26.1367 25.0481 24.5703 23.3684 24.1261V31.8741ZM18.5 18C18.5 16.1367 19.7414 14.5703 21.4211 14.1261V21.8741C19.741 21.4302 18.5 19.8644 18.5 18Z" fill="#06BA98"/>
</g>
<defs>
<clipPath id="clip0">
<rect width="44.7895" height="46" fill="white"/>
</clipPath>
</defs>
</svg>
