<svg width="38" height="46" viewBox="0 0 38 46" fill="none" xmlns="http://www.w3.org/2000/svg">
<path fill-rule="evenodd" clip-rule="evenodd" d="M35.2174 0H1.95652C0.875964 0 0 0.89543 0 2V27C0 37.4934 8.32167 46 18.587 46C28.8522 46 37.1739 37.4934 37.1739 27V2C37.1739 0.89543 36.298 0 35.2174 0ZM1.95652 2V27C1.95652 36.3888 9.40226 44 18.587 44C27.7717 44 35.2174 36.3888 35.2174 27V2H1.95652ZM28.6804 13.2689C29.0753 12.8921 29.6943 12.9139 30.063 13.3177C30.4316 13.7214 30.4103 14.3542 30.0153 14.7311L15.3414 28.7311C14.956 29.0987 14.3549 29.0881 13.9822 28.7071L9.09088 23.7071C8.70887 23.3166 8.70887 22.6834 9.09088 22.2929C9.47289 21.9024 10.0923 21.9024 10.4743 22.2929L14.6974 26.6097L28.6804 13.2689Z" fill="#06BA98"/>
</svg>
