<svg width="44" height="51" viewBox="0 0 44 51" fill="none" xmlns="http://www.w3.org/2000/svg">
<path d="M23.099 29.7125L23.0998 29.7117L23.1002 29.7112C23.2401 29.565 23.3463 29.3978 23.4186 29.2197C23.4907 29.0427 23.5318 28.8493 23.5348 28.6467L23.099 29.7125ZM23.099 29.7125L23.0838 29.7281L23.099 29.7125ZM23.2848 28.642H23.2848V28.6448C23.2821 28.8151 23.2474 28.9772 23.1871 29.1254L23.187 29.1256C23.1266 29.2744 23.0379 29.4142 22.9211 29.5368C22.9206 29.5373 22.9201 29.5379 22.9195 29.5384L22.9189 29.539L22.9056 29.5528L22.9056 29.5528L18.8142 33.7144C18.8142 33.7144 18.8142 33.7144 18.8142 33.7144C18.5628 33.97 18.2349 34.0969 17.907 34.0969C17.5791 34.0969 17.2512 33.97 17 33.7144L17 33.7143C16.4962 33.2019 16.4962 32.3694 17 31.857L20.6434 28.1511L20.7151 28.0781V27.9758V14.051C20.7151 13.3229 21.2944 12.7398 22 12.7398C22.7056 12.7398 23.2849 13.3229 23.2849 14.051V28.6197L23.2848 28.642ZM10.7731 48.1275H11.6685L10.9027 47.6637C9.36159 46.7304 7.92399 45.5949 6.62192 44.2705C2.51309 40.0912 0.25 34.5348 0.25 28.6224C0.25 22.7101 2.51309 17.1537 6.62192 12.9744C8.05748 11.5142 9.65762 10.2837 11.3798 9.30052L11.5058 9.22856V9.08341V4.68367C11.5058 2.23514 13.4635 0.25 15.8605 0.25H28.1395C30.5365 0.25 32.4942 2.23514 32.4942 4.68367V9.08341V9.22855L32.6202 9.30052C34.3423 10.2837 35.9425 11.5142 37.3781 12.9744C41.4869 17.1537 43.75 22.7101 43.75 28.6224C43.75 34.5348 41.4869 40.0912 37.3781 44.2705C36.076 45.5949 34.6385 46.7304 33.0974 47.6637L32.3314 48.1275H33.2269H38.3721C39.0777 48.1275 39.657 48.7106 39.657 49.4388C39.657 50.1669 39.0777 50.75 38.3721 50.75H5.62791C4.92231 50.75 4.34302 50.1669 4.34302 49.4388C4.34302 48.7106 4.92231 48.1275 5.62791 48.1275H10.7731ZM14.0756 7.63782V7.9995L14.4139 7.87169C16.8084 6.96721 19.3684 6.4949 22 6.4949C24.6316 6.4949 27.1916 6.96721 29.5861 7.87169L29.9244 7.9995V7.63782V4.68367C29.9244 3.68877 29.1279 2.87245 28.1395 2.87245H15.8605C14.8721 2.87245 14.0756 3.68877 14.0756 4.68367V7.63782ZM23.2849 47.8149V48.0862L23.5553 48.0641C32.8974 47.2979 40.3653 39.6975 41.1179 30.2034L41.1392 29.9337H40.8686H37.1264C36.4208 29.9337 35.8415 29.3506 35.8415 28.6224C35.8415 27.8943 36.4208 27.3112 37.1264 27.3112H40.8686H41.1392L41.1179 27.0415C40.324 17.0262 32.0566 9.11735 22 9.11735C11.9434 9.11735 3.676 17.0262 2.88215 27.0415L2.86077 27.3112H3.13137H6.87362C7.57922 27.3112 8.1585 27.8943 8.1585 28.6224C8.1585 29.3506 7.57922 29.9337 6.87362 29.9337H3.13137H2.86077L2.88215 30.2034C3.63468 39.6975 11.1026 47.2979 20.4447 48.0641L20.7151 48.0862V47.8149V44.0084C20.7151 43.2803 21.2944 42.6972 22 42.6972C22.7056 42.6972 23.2849 43.2803 23.2849 44.0084V47.8149Z" fill="#00BA97" stroke="#F9F9F9" stroke-width="0.5"/>
</svg>
