<svg width="38" height="46" viewBox="0 0 38 46" fill="none" xmlns="http://www.w3.org/2000/svg">
<path fill-rule="evenodd" clip-rule="evenodd" d="M36 0H2C0.89543 0 0 0.89543 0 2V27C0 37.4934 8.5066 46 19 46C29.4934 46 38 37.4934 38 27V2C38 0.89543 37.1046 0 36 0ZM2 2V27C2 36.3888 9.6112 44 19 44C28.3888 44 36 36.3888 36 27V2H2ZM29.3177 13.2689C29.7214 12.8921 30.3542 12.9139 30.7311 13.3177C31.1079 13.7214 31.0861 14.3542 30.6823 14.7311L15.6823 28.7311C15.2884 29.0987 14.6739 29.0881 14.2929 28.7071L9.2929 23.7071C8.9024 23.3166 8.9024 22.6834 9.2929 22.2929C9.6834 21.9024 10.3166 21.9024 10.7071 22.2929L15.024 26.6097L29.3177 13.2689Z" fill="#06BA98"/>
</svg>
