<svg width="47" height="47" viewBox="0 0 47 47" fill="none" xmlns="http://www.w3.org/2000/svg">
<path d="M30.2743 32.5323C30.8978 33.1559 31.9088 33.1559 32.5323 32.5323C33.1559 31.9088 33.1559 30.8978 32.5323 30.2742L25.7581 23.5L32.5323 16.7258C33.1559 16.1022 33.1559 15.0912 32.5323 14.4677C31.9088 13.8441 30.8978 13.8441 30.2743 14.4677L23.5 21.2419L16.7257 14.4677C16.1022 13.8441 15.0912 13.8441 14.4677 14.4677C13.8441 15.0912 13.8441 16.1022 14.4677 16.7257L21.2419 23.5L14.4677 30.2743C13.8441 30.8978 13.8441 31.9088 14.4677 32.5323C15.0912 33.1559 16.1022 33.1559 16.7257 32.5323L23.5 25.7581L30.2743 32.5323Z" fill="#00BA97" stroke="#F9F9F9"/>
<path d="M44.9575 23.5C44.9575 19.2561 43.699 15.1075 41.3413 11.5789C38.9835 8.05019 35.6323 5.29993 31.7114 3.67586C27.7906 2.0518 23.4762 1.62687 19.3139 2.45481C15.1515 3.28275 11.3282 5.32638 8.32728 8.32726C5.32639 11.3281 3.28275 15.1515 2.45481 19.3138C1.62687 23.4762 2.0518 27.7906 3.67587 31.7114C5.29994 35.6323 8.05019 38.9835 11.5789 41.3412C15.1075 43.699 19.2561 44.9575 23.5 44.9575C29.1909 44.9575 34.6487 42.6968 38.6727 38.6727C42.6968 34.6487 44.9575 29.1909 44.9575 23.5ZM47 23.5C47 28.1479 45.6217 32.6913 43.0395 36.5559C40.4573 40.4204 36.7871 43.4325 32.4931 45.2112C28.199 46.9898 23.4739 47.4552 18.9154 46.5484C14.3568 45.6417 10.1695 43.4035 6.883 40.117C3.59647 36.8305 1.35831 32.6432 0.451561 28.0846C-0.455192 23.5261 0.0101701 18.801 1.78883 14.5069C3.56749 10.2129 6.57955 6.54268 10.4441 3.96046C14.3087 1.37825 18.8521 1.17457e-06 23.5 1.17457e-06C26.5863 -0.000974743 29.6426 0.606205 32.4942 1.78684C35.3458 2.96748 37.9368 4.69844 40.1192 6.88081C42.3016 9.06318 44.0325 11.6542 45.2132 14.5058C46.3938 17.3574 47.001 20.4137 47 23.5Z" fill="#00BA97"/>
</svg>
